PathFileType	4	(X/Y/Z)	./resultDataOpenSim/trcMotMarkerGrf/sub10/qtm-13-07.trc
DataRate	CameraRate	NumFrames	NumMarkers	Units	OrigDataRate	OrigDataStartFrame	OrigNumFrames
250.000000	250.000000	9	24	m	250.000000	309	494
Frame#	Time	L.Toe.Tip			R.Toe.Tip			L.Ankle.Lat			R.Ankle.Lat			L.Ankle.Med			R.Ankle.Med			L.Heel			R.Heel			L.Knee.Lat			R.Knee.Lat			L.Knee.Med			R.Knee.Med			L.Thigh.Upper			R.Thigh.Upper			L.ASIS			R.ASIS			V.Sacral			L.Acromium			R.Acromium			C7			L.Elbow			R.Elbow			L.Wrist.Lat			R.Wrist.Lat
		X1	Y1	Z1	X2	Y2	Z2	X3	Y3	Z3	X4	Y4	Z4	X5	Y5	Z5	X6	Y6	Z6	X7	Y7	Z7	X8	Y8	Z8	X9	Y9	Z9	X10	Y10	Z10	X11	Y11	Z11	X12	Y12	Z12	X13	Y13	Z13	X14	Y14	Z14	X15	Y15	Z15	X16	Y16	Z16	X17	Y17	Z17	X18	Y18	Z18	X19	Y19	Z19	X20	Y20	Z20	X21	Y21	Z21	X22	Y22	Z22	X23	Y23	Z23	X24	Y24	Z24

309	1.232	0.056861669	-0.0037570613	-0.036372462	0.88101949	0.042136439	0.078694833	0.024616661	0.12402269	-0.08461455	0.74280309	0.05152466	0.12357618	0.0552895	0.13007911	-0.005948516	0.75526231	0.082162321	0.039968724	-0.02598854	0.16402125	-0.037822719	0.68962038	0.028200058	0.078694986	0.29184799	0.40802475	-0.11496586	0.69498277	0.45096128	0.15558234	0.30555725	0.36893215	0.0027484041	0.68419867	0.45632108	0.027077652	0.42802804	0.76973381	-0.16011136	0.53043433	0.82262893	0.2174923	0.51357931	0.87221629	-0.11181184	0.56296808	0.89871118	0.12434041	0.34500821	0.91039668	0.052301981	0.45656683	1.3628377	-0.1290634	0.41328396	1.3551777	0.19353057	0.35401723	1.3787561	0.017116408	0.45356607	1.0060201	-0.17891454	0.25977535	1.0566682	0.18098073	0.69547379	0.94084828	-0.20396216	0.20516291	0.85141073	0.2961595
310	1.236	0.059571209	-0.0022317828	-0.037232231	0.88264644	0.041103367	0.079250907	0.031451603	0.1265371	-0.086408728	0.74401395	0.051599551	0.12320746	0.061940083	0.13222322	-0.0076319075	0.75661369	0.081700906	0.039557795	-0.017956476	0.16827514	-0.040172251	0.69036102	0.028599206	0.078447343	0.30024865	0.40832043	-0.11549894	0.70125127	0.45158057	0.15525187	0.31459281	0.36810682	0.0017604956	0.69043475	0.45771571	0.026831005	0.4358389	0.77007821	-0.16028325	0.53778917	0.82471729	0.21777965	0.52068725	0.87266564	-0.11133838	0.57032204	0.89936799	0.12433146	0.35204585	0.91142051	0.052303195	0.46286339	1.3637687	-0.12848283	0.41981676	1.3555816	0.19435073	0.36039727	1.3794528	0.018111761	0.45935756	1.0068367	-0.17781706	0.26756136	1.0564712	0.18137571	0.70091522	0.94092235	-0.20301645	0.21329151	0.85088497	0.29618625
311	1.24	0.062422126	-0.00060941782	-0.03815482	0.88372319	0.040359795	0.079702023	0.038395801	0.12917421	-0.088130138	0.74473773	0.051685893	0.12288744	0.068754879	0.13443437	-0.0092558725	0.75767176	0.0812937	0.039138325	-0.0097448859	0.17252793	-0.0422846	0.69089403	0.028850787	0.078233915	0.30894693	0.40849084	-0.11603497	0.70714677	0.45195286	0.15488036	0.32382976	0.36731222	0.00088032719	0.6966009	0.45886213	0.026564254	0.44362351	0.77041972	-0.16045624	0.54478667	0.82664554	0.21800658	0.52777478	0.87313579	-0.11083408	0.5775584	0.90006198	0.12429396	0.35765313	0.91251248	0.052648783	0.46918851	1.3646777	-0.12793296	0.42635743	1.3560079	0.19516149	0.36679889	1.3802856	0.018954455	0.46515331	1.0076808	-0.17682489	0.27530293	1.0562183	0.18178706	0.70628328	0.94089258	-0.20211194	0.22161193	0.85028659	0.29625654
312	1.244	0.065470078	0.0011144645	-0.039142122	0.88429356	0.039920978	0.079756627	0.045458479	0.13194616	-0.089810501	0.74503038	0.051778318	0.12262553	0.075734972	0.13672757	-0.010794889	0.75827646	0.080970311	0.038773994	-0.0014091669	0.17675528	-0.044156763	0.69122462	0.028983137	0.078130451	0.31795992	0.40857908	-0.11659048	0.71267915	0.45211315	0.15448038	0.33326251	0.36660873	7.3403482e-05	0.70266887	0.45978407	0.026292299	0.45136998	0.77076586	-0.16061701	0.55144913	0.82838744	0.21820855	0.53500497	0.87368903	-0.11018512	0.58466821	0.90080129	0.1242607	0.36269728	0.91352709	0.052983631	0.47554773	1.3655789	-0.12740841	0.43289998	1.3564615	0.19596924	0.37319792	1.3812184	0.019665833	0.47091102	1.0085598	-0.1759685	0.28294944	1.0558996	0.1823131	0.7115811	0.94077737	-0.20121216	0.23014287	0.84963033	0.29637679
313	1.248	0.068784489	0.002951867	-0.040232671	0.88455842	0.039690498	0.079468845	0.052636428	0.13484719	-0.091459277	0.74503461	0.051895737	0.12238926	0.082854737	0.13911727	-0.012239509	0.75843912	0.08072563	0.03847753	0.0070090528	0.18093114	-0.045829619	0.69141517	0.029049231	0.078112669	0.32729209	0.40861305	-0.11718206	0.71786637	0.45210893	0.15406851	0.34289743	0.36608015	-0.00075782825	0.70863095	0.46051369	0.026032293	0.45906841	0.77112507	-0.16075842	0.55781198	0.82992232	0.21841025	0.54244575	0.87436423	-0.10932107	0.59164937	0.90159068	0.12426667	0.36748529	0.9144367	0.053225948	0.48194118	1.3664798	-0.12690584	0.43944303	1.3569458	0.19677423	0.37957201	1.3822142	0.020288953	0.47656578	1.0094667	-0.17524463	0.29050965	1.0555277	0.18300008	0.71682019	0.94058444	-0.20029369	0.23889073	0.84892622	0.29654318
314	1.252	0.072434532	0.0049087544	-0.041494191	0.88473199	0.039544227	0.079107538	0.059931207	0.13785532	-0.093059302	0.74492232	0.052048244	0.12214752	0.090084827	0.14160926	-0.013593023	0.75837554	0.080529366	0.038223614	0.015472618	0.18503025	-0.047343558	0.69153935	0.029093383	0.078111145	0.33690602	0.40859751	-0.11780008	0.72271199	0.45199047	0.15367506	0.35273927	0.365783	-0.0016951739	0.71448301	0.46107574	0.025801096	0.46670987	0.77150063	-0.16088049	0.56389229	0.83124188	0.21860925	0.54997366	0.87513484	-0.10830939	0.59850841	0.90244056	0.12434812	0.37217855	0.91523086	0.053355227	0.48835953	1.3673818	-0.12642149	0.44599244	1.3574682	0.19756643	0.38590584	1.3832615	0.020873689	0.48209555	1.0104035	-0.17461502	0.29805864	1.0551371	0.18379545	0.72199645	0.94031052	-0.19936524	0.24785543	0.84817967	0.29674571
315	1.256	0.076485639	0.0069860566	-0.042986271	0.88492499	0.039415755	0.078883489	0.067355042	0.14094829	-0.094568872	0.74484411	0.052212034	0.12190234	0.097408019	0.14419338	-0.014862407	0.75835092	0.080356292	0.03798822	0.023948866	0.189035	-0.048717983	0.69164191	0.029133026	0.078080711	0.34673989	0.40852627	-0.11841119	0.72720291	0.45180247	0.1533453	0.36276573	0.36568939	-0.0027015341	0.72020023	0.46147968	0.025605741	0.47428898	0.77188543	-0.16097392	0.56968993	0.83234721	0.2187842	0.5573558	0.87592626	-0.10733351	0.60525301	0.9033683	0.12453622	0.37721415	0.91583819	0.053196123	0.49478791	1.3682881	-0.12595104	0.45256015	1.3580407	0.19832999	0.39218022	1.384371	0.021498613	0.48754656	1.0113812	-0.17400161	0.30568918	1.0547701	0.18458176	0.7270843	0.93995001	-0.19846206	0.2570308	0.84739635	0.29697405
316	1.26	0.0810092	0.0092049337	-0.044725577	0.88513366	0.039292684	0.078815159	0.074918707	0.14411284	-0.095955274	0.74487212	0.052343796	0.12168151	0.10482224	0.1468434	-0.01605295	0.75849131	0.080203834	0.037768983	0.032410351	0.19293991	-0.049944205	0.69172966	0.029166003	0.07802742	0.35677103	0.40839606	-0.11899942	0.7313276	0.45157321	0.15312042	0.37291453	0.36569375	-0.0036193839	0.72571722	0.46173101	0.025434335	0.48180557	0.77226622	-0.16101304	0.57521765	0.83324076	0.2189192	0.56444008	0.87668994	-0.10653554	0.61188567	0.90439207	0.12484839	0.38281739	0.91623862	0.052644168	0.50121335	1.3692096	-0.12549043	0.45915267	1.3586765	0.1990526	0.3983809	1.3855565	0.022225235	0.49297578	1.0124	-0.17332404	0.31343902	1.0544535	0.18527822	0.73206096	0.93950137	-0.19761176	0.26640037	0.84658321	0.297214
317	1.264	0.086091266	0.011625573	-0.046679506	0.88530741	0.039183607	0.078802481	0.082627021	0.14734079	-0.097222374	0.74497098	0.052419194	0.12150578	0.112343	0.14953196	-0.017164906	0.75873353	0.0800793	0.037576635	0.040840848	0.19674778	-0.050994355	0.69178918	0.029186683	0.077980782	0.3670114	0.40820958	-0.11957238	0.73510378	0.45131191	0.15300876	0.38311869	0.3657011	-0.0043199304	0.73093256	0.46184748	0.025259268	0.48925933	0.7726327	-0.160973	0.58052396	0.8339347	0.21902158	0.57124466	0.87744191	-0.10591441	0.61840711	0.90552912	0.12528919	0.38875374	0.91652109	0.051809284	0.50762835	1.3701627	-0.12503595	0.46576522	1.3593864	0.19972963	0.40452178	1.386825	0.023015058	0.49840136	1.0134541	-0.17256303	0.32125426	1.0541908	0.18592626	0.73692423	0.93897097	-0.19681316	0.27594163	0.84574679	0.29744512
